<svg width="25" height="18" viewBox="0 0 30 21" fill="none" xmlns="http://www.w3.org/2000/svg">
<g clip-path="url(#clip0_1_947)">
<path d="M1.48148 0H28.1481C28.5411 0 28.9179 0.122916 29.1957 0.341708C29.4736 0.560501 29.6297 0.857247 29.6297 1.16666V19.8334C29.6297 20.1428 29.4736 20.4395 29.1957 20.6583C28.9179 20.8771 28.5411 21 28.1481 21H1.48148C1.08857 21 0.711748 20.8771 0.433916 20.6583C0.156084 20.4395 0 20.1428 0 19.8334V1.16666C0 0.857247 0.156084 0.560501 0.433916 0.341708C0.711748 0.122916 1.08857 0 1.48148 0ZM14.9037 10.1301L5.40444 3.77766L3.48592 5.55566L14.923 13.2031L26.1541 5.54984L24.2163 3.78466L14.9052 10.1301H14.9037Z" fill="#424242" fill-opacity="0.5"/>
</g>
<defs>
<clipPath id="clip0_1_947">
<rect width="30" height="21" fill="white"/>
</clipPath>
</defs>
</svg>
