<svg width="20" height="22" viewBox="0 0 20 22" fill="none" xmlns="http://www.w3.org/2000/svg">
<path d="M18.9481 13.5485L15.9953 10.0051C15.9008 8.83794 15.6384 7.6906 15.216 6.59849C14.0815 3.6481 12.0757 1.71583 10.9811 0.826531C10.7035 0.603093 10.3582 0.480673 10.0018 0.479501C9.64552 0.478329 9.29935 0.598406 9.02028 0.819968C7.91138 1.70833 5.87989 3.63927 4.73396 6.59005C4.29739 7.70684 4.03083 8.88286 3.94317 10.0787L1.05177 13.5485C0.899503 13.7324 0.791064 13.9486 0.734736 14.1806C0.678407 14.4126 0.675674 14.6544 0.726768 14.8877L1.93411 20.3206C1.99138 20.5798 2.11372 20.8202 2.28974 21.019C2.46567 21.2177 2.68942 21.3683 2.93981 21.4565C3.1902 21.5447 3.45895 21.5676 3.72067 21.523C3.98239 21.4785 4.22841 21.3679 4.43544 21.2018L7.14895 19.031H12.8509L15.5643 21.2018C15.8401 21.4237 16.1834 21.5449 16.5375 21.5452C16.7154 21.545 16.8919 21.5147 17.0596 21.4554C17.3103 21.368 17.5344 21.2179 17.7106 21.0192C17.8867 20.8205 18.009 20.5801 18.0658 20.3207L19.2731 14.8878C19.3242 14.6545 19.3215 14.4127 19.2651 14.1806C19.2088 13.9486 19.1004 13.7324 18.9481 13.5485ZM3.45942 19.9817L2.25208 14.5487L4.0027 12.4479C4.22466 14.2733 4.84771 16.1412 5.87192 18.0517L3.45942 19.9817ZM9.99989 10.0466C9.76817 10.0466 9.54161 9.97786 9.34888 9.84911C9.15614 9.72036 9.00599 9.53731 8.91724 9.32317C8.82856 9.10903 8.80536 8.87341 8.85059 8.64614C8.89575 8.4188 9.00739 8.20997 9.1713 8.04614C9.3352 7.88224 9.54395 7.7706 9.7713 7.72536C9.99864 7.6802 10.2343 7.70341 10.4484 7.79208C10.6625 7.88075 10.8455 8.03099 10.9743 8.22372C11.1031 8.41638 11.1718 8.64294 11.1718 8.87474C11.1718 9.18552 11.0483 9.48364 10.8286 9.70341C10.6088 9.92317 10.3108 10.0466 9.99989 10.0466ZM16.5404 19.9817L14.1235 18.0481C15.1346 16.1241 15.7447 14.2401 15.9539 12.3961L17.7478 14.5487L16.5404 19.9817Z" fill="#D10094"/>
</svg>

