<svg width="203" height="28" viewBox="0 0 203 28" fill="none" xmlns="http://www.w3.org/2000/svg">
<path d="M1.49201 24V5.47422H9.10126C10.3778 5.47422 11.505 5.69802 12.4831 6.14563C13.4778 6.59323 14.257 7.25634 14.8206 8.13497C15.3843 9.0136 15.6661 10.0994 15.6661 11.3925C15.6661 12.6524 15.376 13.7217 14.7958 14.6003C14.2321 15.479 13.4529 16.1504 12.4583 16.6146C11.4802 17.0622 10.3612 17.286 9.10126 17.286H5.34637V24H1.49201ZM5.34637 13.9289H9.12612C9.93844 13.9289 10.585 13.6968 11.0657 13.2327C11.5631 12.7685 11.8117 12.1551 11.8117 11.3925C11.8117 10.6134 11.5631 9.99169 11.0657 9.52751C10.585 9.06333 9.93844 8.83124 9.12612 8.83124H5.34637V13.9289ZM23.3187 24.2984C21.9759 24.2984 20.7491 23.9917 19.6384 23.3783C18.5442 22.7649 17.6739 21.9278 17.0274 20.8668C16.3808 19.7892 16.0576 18.5707 16.0576 17.2114C16.0576 15.8354 16.3808 14.6169 17.0274 13.5559C17.6739 12.495 18.5442 11.6578 19.6384 11.0444C20.7491 10.431 21.9759 10.1243 23.3187 10.1243C24.6615 10.1243 25.8799 10.431 26.9741 11.0444C28.0848 11.6578 28.9634 12.495 29.61 13.5559C30.2565 14.6169 30.5798 15.8354 30.5798 17.2114C30.5798 18.5707 30.2565 19.7892 29.61 20.8668C28.9634 21.9278 28.0848 22.7649 26.9741 23.3783C25.8799 23.9917 24.6615 24.2984 23.3187 24.2984ZM23.3187 20.9414C24.3465 20.9414 25.1671 20.5932 25.7805 19.897C26.4104 19.2007 26.7254 18.3055 26.7254 17.2114C26.7254 16.1338 26.4104 15.2469 25.7805 14.5506C25.1671 13.8378 24.3465 13.4813 23.3187 13.4813C22.3074 13.4813 21.4868 13.8378 20.8568 14.5506C20.2269 15.2469 19.9119 16.1338 19.9119 17.2114C19.9119 18.3055 20.2269 19.2007 20.8568 19.897C21.4868 20.5932 22.3074 20.9414 23.3187 20.9414ZM32.0724 24V10.4227H35.5537V12.4618C35.9019 11.6163 36.3909 11.0444 37.0209 10.746C37.6674 10.431 38.4051 10.2735 39.234 10.2735H40.6514V13.5062H38.861C37.9492 13.5062 37.2115 13.788 36.6479 14.3517C36.0842 14.8987 35.8024 15.6779 35.8024 16.6892V24H32.0724ZM48.9023 24.1492C47.2611 24.1492 45.9846 23.7099 45.0729 22.8313C44.1776 21.9361 43.73 20.6927 43.73 19.1012V13.6554H41.3926V10.4227H41.5666C43.0089 10.4227 43.73 9.72645 43.73 8.3339V6.34456H47.4601V10.4227H50.643V13.6554H47.4601V19.1012C47.4601 20.4772 48.2309 21.1652 49.7727 21.1652C50.0048 21.1652 50.2949 21.1403 50.643 21.0906V24.0249C50.0959 24.1078 49.5157 24.1492 48.9023 24.1492ZM53.2128 24V13.6554H50.9002V10.4227H53.2128V10.0248C53.2128 8.41679 53.6853 7.17345 54.6303 6.29483C55.5752 5.4162 56.8931 4.97688 58.5841 4.97688C59.0814 4.97688 59.5207 5.01833 59.902 5.10122V8.28417C59.587 8.23444 59.3135 8.20957 59.0814 8.20957C57.6557 8.20957 56.9429 8.81466 56.9429 10.0248V10.4227H59.8772V13.6554H56.9429V24H53.2128ZM67.4194 24.2984C66.0766 24.2984 64.8498 23.9917 63.7391 23.3783C62.6449 22.7649 61.7746 21.9278 61.1281 20.8668C60.4815 19.7892 60.1583 18.5707 60.1583 17.2114C60.1583 15.8354 60.4815 14.6169 61.1281 13.5559C61.7746 12.495 62.6449 11.6578 63.7391 11.0444C64.8498 10.431 66.0766 10.1243 67.4194 10.1243C68.7622 10.1243 69.9807 10.431 71.0748 11.0444C72.1855 11.6578 73.0641 12.495 73.7107 13.5559C74.3572 14.6169 74.6805 15.8354 74.6805 17.2114C74.6805 18.5707 74.3572 19.7892 73.7107 20.8668C73.0641 21.9278 72.1855 22.7649 71.0748 23.3783C69.9807 23.9917 68.7622 24.2984 67.4194 24.2984ZM67.4194 20.9414C68.4472 20.9414 69.2678 20.5932 69.8812 19.897C70.5112 19.2007 70.8261 18.3055 70.8261 17.2114C70.8261 16.1338 70.5112 15.2469 69.8812 14.5506C69.2678 13.8378 68.4472 13.4813 67.4194 13.4813C66.4081 13.4813 65.5875 13.8378 64.9576 14.5506C64.3276 15.2469 64.0126 16.1338 64.0126 17.2114C64.0126 18.3055 64.3276 19.2007 64.9576 19.897C65.5875 20.5932 66.4081 20.9414 67.4194 20.9414ZM76.1731 24V5.47422H79.9031V24H76.1731ZM82.1411 9.20424V5.47422H85.8711V9.20424H82.1411ZM82.1411 24V10.4227H85.8711V24H82.1411ZM94.6243 24.2984C93.2814 24.2984 92.0547 23.9917 90.944 23.3783C89.8498 22.7649 88.9795 21.9278 88.3329 20.8668C87.6864 19.7892 87.3631 18.5707 87.3631 17.2114C87.3631 15.8354 87.6864 14.6169 88.3329 13.5559C88.9795 12.495 89.8498 11.6578 90.944 11.0444C92.0547 10.431 93.2814 10.1243 94.6243 10.1243C95.9671 10.1243 97.1855 10.431 98.2797 11.0444C99.3904 11.6578 100.269 12.495 100.916 13.5559C101.562 14.6169 101.885 15.8354 101.885 17.2114C101.885 18.5707 101.562 19.7892 100.916 20.8668C100.269 21.9278 99.3904 22.7649 98.2797 23.3783C97.1855 23.9917 95.9671 24.2984 94.6243 24.2984ZM94.6243 20.9414C95.6521 20.9414 96.4727 20.5932 97.0861 19.897C97.716 19.2007 98.031 18.3055 98.031 17.2114C98.031 16.1338 97.716 15.2469 97.0861 14.5506C96.4727 13.8378 95.6521 13.4813 94.6243 13.4813C93.613 13.4813 92.7924 13.8378 92.1624 14.5506C91.5325 15.2469 91.2175 16.1338 91.2175 17.2114C91.2175 18.3055 91.5325 19.2007 92.1624 19.897C92.7924 20.5932 93.613 20.9414 94.6243 20.9414ZM116.574 24.2984C115.248 24.2984 114.013 24.058 112.869 23.5773C111.742 23.0965 110.756 22.4251 109.91 21.5631C109.065 20.701 108.402 19.6898 107.921 18.5293C107.457 17.3688 107.225 16.1006 107.225 14.7247C107.225 13.3487 107.457 12.0805 107.921 10.9201C108.385 9.74303 109.04 8.73178 109.885 7.8863C110.731 7.02425 111.717 6.36114 112.844 5.89696C113.988 5.4162 115.232 5.17582 116.574 5.17582C117.917 5.17582 119.119 5.39962 120.18 5.84722C121.258 6.29483 122.169 6.89163 122.916 7.63763C123.662 8.38364 124.192 9.21253 124.507 10.1243L121.1 11.7655C120.785 10.8703 120.23 10.1326 119.434 9.55238C118.655 8.95558 117.702 8.65717 116.574 8.65717C115.48 8.65717 114.519 8.91413 113.69 9.42805C112.861 9.94196 112.214 10.6548 111.75 11.5666C111.303 12.4618 111.079 13.5145 111.079 14.7247C111.079 15.9349 111.303 16.9958 111.75 17.9076C112.214 18.8194 112.861 19.5323 113.69 20.0462C114.519 20.5601 115.48 20.817 116.574 20.817C117.702 20.817 118.655 20.5269 119.434 19.9467C120.23 19.3499 120.785 18.6039 121.1 17.7087L124.507 19.3499C124.192 20.2617 123.662 21.0906 122.916 21.8366C122.169 22.5826 121.258 23.1794 120.18 23.627C119.119 24.0746 117.917 24.2984 116.574 24.2984ZM126.242 24V10.4227H129.723V12.4618C130.071 11.6163 130.56 11.0444 131.19 10.746C131.837 10.431 132.575 10.2735 133.403 10.2735H134.821V13.5062H133.03C132.119 13.5062 131.381 13.788 130.817 14.3517C130.254 14.8987 129.972 15.6779 129.972 16.6892V24H126.242ZM142.437 24.2984C141.011 24.2984 139.76 23.9834 138.682 23.3535C137.621 22.7069 136.792 21.8449 136.195 20.7673C135.615 19.6898 135.325 18.4961 135.325 17.1865C135.325 15.8271 135.623 14.6169 136.22 13.5559C136.834 12.495 137.654 11.6578 138.682 11.0444C139.726 10.431 140.895 10.1243 142.188 10.1243C143.465 10.1243 144.609 10.4227 145.62 11.0195C146.631 11.6163 147.435 12.4204 148.032 13.4316C148.629 14.4263 148.927 15.5536 148.927 16.8135C148.927 17.0787 148.911 17.344 148.877 17.6092C148.861 17.8579 148.819 18.0734 148.753 18.2558H139.204C139.32 19.1012 139.668 19.7809 140.249 20.2948C140.829 20.8088 141.575 21.0657 142.487 21.0657C143.15 21.0657 143.713 20.9331 144.178 20.6678C144.658 20.4026 145.031 20.0379 145.297 19.5737L148.281 20.9911C147.866 21.9858 147.137 22.7898 146.092 23.4032C145.048 24 143.829 24.2984 142.437 24.2984ZM142.188 13.1083C141.459 13.1083 140.837 13.3156 140.323 13.73C139.809 14.1445 139.461 14.7413 139.279 15.5204H144.973C144.907 14.791 144.617 14.2108 144.103 13.7797C143.606 13.3321 142.967 13.1083 142.188 13.1083ZM154.451 24.2984C153.423 24.2984 152.528 24.1243 151.766 23.7762C151.02 23.4115 150.439 22.9307 150.025 22.3339C149.627 21.7205 149.428 21.0408 149.428 20.2948C149.428 19.2836 149.809 18.4547 150.572 17.8082C151.335 17.145 152.404 16.6726 153.78 16.3908L158.032 15.4955V15.0479C158.032 14.534 157.841 14.1279 157.46 13.8295C157.079 13.5145 156.573 13.357 155.943 13.357C155.28 13.357 154.692 13.5394 154.178 13.9041C153.68 14.2522 153.332 14.733 153.133 15.3463L149.926 13.8046C150.323 12.6773 151.061 11.7821 152.139 11.119C153.233 10.4559 154.501 10.1243 155.943 10.1243C157.104 10.1243 158.115 10.3315 158.977 10.746C159.856 11.1604 160.535 11.7407 161.016 12.4867C161.513 13.2161 161.762 14.0699 161.762 15.0479V24H158.281V22.7567C157.767 23.3037 157.195 23.7016 156.565 23.9503C155.952 24.1824 155.247 24.2984 154.451 24.2984ZM153.283 20.2451C153.283 20.6596 153.44 20.9828 153.755 21.2149C154.07 21.447 154.493 21.5631 155.023 21.5631C155.869 21.5631 156.582 21.2978 157.162 20.7673C157.742 20.2368 158.032 19.5903 158.032 18.8277V18.1812L154.451 18.9769C153.672 19.1593 153.283 19.582 153.283 20.2451ZM170.015 24.1492C168.374 24.1492 167.098 23.7099 166.186 22.8313C165.291 21.9361 164.843 20.6927 164.843 19.1012V13.6554H162.506V10.4227H162.68C164.122 10.4227 164.843 9.72645 164.843 8.3339V6.34456H168.573V10.4227H171.756V13.6554H168.573V19.1012C168.573 20.4772 169.344 21.1652 170.886 21.1652C171.118 21.1652 171.408 21.1403 171.756 21.0906V24.0249C171.209 24.1078 170.629 24.1492 170.015 24.1492ZM179.772 24.2984C178.429 24.2984 177.202 23.9917 176.091 23.3783C174.997 22.7649 174.127 21.9278 173.48 20.8668C172.834 19.7892 172.511 18.5707 172.511 17.2114C172.511 15.8354 172.834 14.6169 173.48 13.5559C174.127 12.495 174.997 11.6578 176.091 11.0444C177.202 10.431 178.429 10.1243 179.772 10.1243C181.115 10.1243 182.333 10.431 183.427 11.0444C184.538 11.6578 185.417 12.495 186.063 13.5559C186.71 14.6169 187.033 15.8354 187.033 17.2114C187.033 18.5707 186.71 19.7892 186.063 20.8668C185.417 21.9278 184.538 22.7649 183.427 23.3783C182.333 23.9917 181.115 24.2984 179.772 24.2984ZM179.772 20.9414C180.8 20.9414 181.62 20.5932 182.234 19.897C182.864 19.2007 183.178 18.3055 183.178 17.2114C183.178 16.1338 182.864 15.2469 182.234 14.5506C181.62 13.8378 180.8 13.4813 179.772 13.4813C178.76 13.4813 177.94 13.8378 177.31 14.5506C176.68 15.2469 176.365 16.1338 176.365 17.2114C176.365 18.3055 176.68 19.2007 177.31 19.897C177.94 20.5932 178.76 20.9414 179.772 20.9414ZM188.525 24V10.4227H192.007V12.4618C192.355 11.6163 192.844 11.0444 193.474 10.746C194.12 10.431 194.858 10.2735 195.687 10.2735H197.104V13.5062H195.314C194.402 13.5062 193.665 13.788 193.101 14.3517C192.537 14.8987 192.255 15.6779 192.255 16.6892V24H188.525Z" fill="black"/>
<path d="M197.244 24V20.27H200.974V24H197.244Z" fill="url(#paint0_linear_1_447)"/>
<defs>
<linearGradient id="paint0_linear_1_447" x1="195.011" y1="20.5372" x2="202.186" y2="20.5302" gradientUnits="userSpaceOnUse">
<stop offset="0.197917" stop-color="#B16CEA"/>
<stop offset="0.557292" stop-color="#FF5E69"/>
<stop offset="0.828125" stop-color="#FF8A56"/>
<stop offset="1" stop-color="#FFA84B"/>
</linearGradient>
</defs>
</svg>
